<?xml version="1.0" encoding="utf-8"?>
<!-- Generator: Adobe Illustrator 27.0.0, SVG Export Plug-In . SVG Version: 6.00 Build 0)  -->
<svg version="1.1" id="Calque_1" xmlns="http://www.w3.org/2000/svg" xmlns:xlink="http://www.w3.org/1999/xlink" x="0px" y="0px"
	 viewBox="0 0 566.93 170.08" style="enable-background:new 0 0 566.93 170.08;" xml:space="preserve">
<style type="text/css">
	.st0{fill:#93C01F;}
	.st1{fill:#FFFFFF;}
	.st2{fill:#FFEC00;}
</style>
<g>
	<path class="st0" d="M454.82,164.27H286.71c-13.4,0-24.37-10.97-24.37-24.37V73.51c0-6.6,5.4-12,12-12h192.86c6.6,0,12,5.4,12,12
		v66.39C479.19,153.31,468.23,164.27,454.82,164.27z"/>
	<path class="st0" d="M266.56,26.81c19.05-14.58,46.71-16.66,68.8,5.28c22.18-18.84,41.16-21.35,65.14-8.2
		c6.92-7.03,16.08-7.09,25.41-6.89c9.99,0.21,19.99,0.24,29.97-0.01c8.7-0.22,16.89,0.81,23.55,6.97
		c6.81-3.84,13.53-6.63,21.04-7.71c28.16-4.04,54.25,16.6,55.36,46.02c0.27,7.28-2.1,13.48-6.25,18.9
		c3.07,14.91-0.29,22.83-13.39,30.31c-16.55,9.44-33.61,9.22-50.82,1.75c-1.86-0.81-3.6-1.89-5.89-3.11
		c-6.16,6.34-14.11,7.08-22.53,6.87c-12.03-0.29-24.08-0.23-36.12-0.01c-6.84,0.13-13.24-0.91-19.06-4.99
		c-23.06,10.77-44.6,8.79-64.41-7.83c-22.67,18.65-46.25,18.96-70.93,3.51c-9.36,10.67-20.53,13.28-33.39,6.27
		c-11.28,5.78-22.73,5.55-34.59,1.23c-4.06,8.11-10.15,13.63-19.17,15.02c-9.16,1.41-16.34-2.82-23.03-9.02
		c-11.49,4.34-23.3,5.07-35.22,1.68c-11.9-3.38-21.36-10.68-29.53-19.63c-19.86,18.71-49.91,20.11-71.38,3.81
		C10.06,99.39,8.12,85.7,15.71,75.65c1.07-1.42,2.34-2.7,3.72-4.29c-2.18-5.06-4.22-10.25-4.64-15.91
		c-1.4-18.92,11.83-35.41,31.12-38.54c16.43-2.67,31.39,1.13,44.95,10.8c2.23-0.9,3.33-3.07,5.01-4.59
		c11.23-10.15,24.28-14.98,39.42-13.29c2.44,0.27,4.39,0.22,6.47-1.04c10.67-6.48,27.09-2.42,33.02,12.15
		c0.67,1.65,1.39,3.29,1.93,4.99c0.46,1.45,0.7,2.96,1.21,5.18c5.6-8.8,12.31-14.76,23.03-14.61c10.4,0.14,17.27,5.29,22.39,14.71
		c5.04-7.41,10.55-13.79,20.1-14.6C252.92,15.79,260.44,19.11,266.56,26.81z M139.07,98.49c-3.7,0.09-6.11-2.36-8.4-4.66
		c-13.19-13.22-18.38-29.02-14.83-47.48c2.77-14.41,12.75-19.96,24.93-16.46c0.29,0.08,0.74-0.4,1.12-0.62
		c0.18-1.51,0.56-3.06-0.5-3.82c-10.83-3.55-20.7-2.46-29.89,3.23c-10.92,6.76-16.54,17.07-18.65,29.43
		c-0.99,5.77-1.12,11.77-3.89,17.03c-3.5,6.64-1.98,9.96,4.74,13.61c4.82,2.62,8.87,5.94,12.69,9.75
		c5.74,5.71,12.64,9.58,20.48,11.41c10.36,2.42,20.29,1.23,29.3-4.92c2.45-1.67,4.17-3.51,1.89-6.6c-6.56,3.3-12.85,5.78-19.07,0.01
		c8.56-0.33,11.32-3.74,8.88-11.9c-1.12-3.73-2.21-7.69-4.68-10.85c-7.36,6.5-9.11,13.76-3.81,22.17
		C139.44,97.93,139.18,98.26,139.07,98.49z M492.9,74.47c2.43-0.85,4.99-0.45,7.48-0.46c10.5-0.04,21,0.11,31.49-0.04
		c6.5-0.09,9.76-3.52,10.03-10c0.05-1.27,0-2.57-0.15-3.83c-1.59-14.04-12.68-26.78-25.52-29.36c-16.46-3.3-31.22,2.8-39.05,15.88
		c-3.51,5.87-5.39,12.33-5.57,18.9c-0.36,13.47,4.14,25.04,15.86,32.9c9.24,6.18,19.54,7.37,30.13,5.54
		c6.03-1.04,11.76-3.6,16.37-7.89c2.3-2.14,3.82-4.8,2.7-8.22c-1.05-3.19-3.22-5.18-6.42-5.98c-3.08-0.76-5.43,1.1-7.75,2.61
		c-5.24,3.4-10.99,4.01-16.96,3.29C498.49,86.93,494.3,82.48,492.9,74.47z M283.66,74c13.21,0,25.73,0.08,38.25-0.03
		c7.72-0.06,11.52-3.88,10.74-11.51c-2.04-20.02-15.59-34.43-36.98-32.66c-31.51,2.6-40.69,37.38-27.56,58.37
		c11.31,18.08,37.51,21.31,54.32,9.89c1.46-0.99,2.82-2.27,3.85-3.69c2.26-3.12,2.04-7.16-0.66-9.8c-2.48-2.43-5.42-3.93-8.98-1.94
		c-1.56,0.87-3.2,1.61-4.71,2.57c-5.1,3.23-10.74,3.26-16.35,2.47C289,86.74,284.68,81.79,283.66,74z M357.71,73.99
		c3.03,0,5.56,0,8.09,0c10.48,0,20.97,0.11,31.45-0.04c6.2-0.09,9.09-2.45,9.58-7.61c1.89-19.58-13.66-39.02-37.16-36.51
		c-28.01,2.99-41.87,34.93-26.54,58.78c8.23,12.82,26.2,18.78,41.17,14.91c6.01-1.56,11.73-3.66,15.94-8.49
		c2.68-3.07,2.61-7.49,0.08-10.52c-2.44-2.92-5.89-3.54-9.64-1.64c-2.27,1.15-4.35,2.79-6.72,3.62
		C373.48,90.15,360.27,88.19,357.71,73.99z M235.26,94.04c0.69,1.31,1.15,2.21,1.64,3.1c3.1,5.55,7.14,7.49,12.54,6.01
		c4.25-1.16,6.74-4.93,6.8-10.7c0.09-7.94,0.04-15.89,0.03-23.83c0-9.48,0.12-18.96-0.09-28.44c-0.12-5.43-3.38-8.93-8.13-9.54
		c-5.8-0.74-9.8,2-11.51,7.69c-0.69,2.29-0.45,4.57-0.47,6.86c-0.08,9.74,0.19,19.48-0.22,29.2c-0.31,7.3-5.53,11.71-12.63,11.6
		c-6.74-0.1-11.37-4.38-11.84-11.54c-0.37-5.61-0.17-11.27-0.2-16.9c-0.03-5.89,0.25-11.8-0.11-17.67
		c-0.36-5.74-4.56-9.27-10.19-9.29c-5.72-0.02-9.72,3.5-9.79,9.45c-0.16,14.35-0.47,28.72,0.21,43.04
		c0.7,14.86,15.07,24.35,29.54,20.68C226.83,102.22,231.07,98.42,235.26,94.04z M445.33,47.63c-8.55,9.41-16.29,17.87-23.96,26.38
		c-3.94,4.37-8.16,8.57-11.52,13.36c-5.46,7.78-1.79,15.45,7.43,15.61c15.11,0.27,30.24,0.18,45.35,0.01
		c5.52-0.06,8.42-2.97,8.68-7.72c0.25-4.49-2.76-8.16-7.85-8.79c-3.54-0.44-7.16-0.13-10.75-0.13c-5.92-0.01-11.83,0-19.12,0
		c11.64-12.81,22.05-24.39,32.62-35.83c3.88-4.2,6.96-8.78,4.41-14.42c-2.34-5.17-7.63-5.25-12.64-5.22
		c-12.56,0.08-25.11,0.02-37.67,0.06c-7.45,0.03-11.67,2.94-11.89,8.06c-0.23,5.4,4.21,8.59,12.06,8.62
		C428.35,47.66,436.22,47.63,445.33,47.63z M46.91,50.76c3.7-4.83,6.96-6.01,13.44-4.33c3.43,0.89,6.62,2.64,9.98,3.82
		c6.57,2.3,12.14-1.24,11.8-7.48c-0.22-3.99-2.58-6.49-6.13-8.04c-9.06-3.96-18.45-5.63-28.28-3.93
		c-10.58,1.84-17.65,9.35-19.07,20.12c-1.13,8.61,3.87,16.48,13.63,20.79c4.41,1.95,9.11,3.25,13.67,4.87
		c1.92,0.68,3.91,1.25,5.68,2.21c2.04,1.11,3.92,2.6,3.45,5.39c-0.46,2.73-2.72,3.5-4.91,4.26c-2.24,0.77-4.51,0.63-6.8,0.15
		c-5.53-1.14-10.68-3.18-15.65-5.9c-4.7-2.57-9.21-1.51-11.5,2.18c-2.47,3.99-1.19,8.99,3.46,11.79c9.4,5.68,19.6,8.71,30.66,7.65
		c7-0.67,13.6-2.81,18.32-8.41c9.27-11.02,5.93-25.99-7.44-32.63c-4.99-2.47-10.47-3.94-15.69-5.96
		C52.21,56.04,48.66,55,46.91,50.76z M152.08,70.88c5.08,7.2,9.32,14.28,8.95,23.34c-0.11,2.74,0.56,5.6,1.29,8.28
		c1.23,4.48,3.16,8.64,7.05,11.55c6.3,4.71,13.07,2.64,15.91-4.78c2.89-7.53,0.35-14.02-3.86-20.11
		C174.32,78.9,164.87,72.22,152.08,70.88z M150.34,55.18c7.82-5.44,11.78-13.03,13.12-22.11c0.64-4.37-1.42-7.97-4.5-10.9
		c-2.84-2.7-7.55-3.09-10.63-1.14c-2.95,1.87-4.12,5.29-3.52,9.31c0.47,3.15,2.17,5.72,3.67,8.35c2.25,3.94,3.49,7.87,1.73,12.36
		C149.77,52.18,149.47,53.51,150.34,55.18z M153.45,62.61c0.04,0.55,0.08,1.11,0.13,1.66c5.27,0,10.65,0.66,15.79-0.16
		c6.56-1.05,12.88-3.37,16.45-9.82c1.5-2.71,1.74-5.35-0.68-7.66c-2.28-2.18-4.86-2.43-7.75-1.1c-2.44,1.13-4.16,2.88-5.32,5.25
		c-2.28,4.66-6.39,7.15-10.92,9.06C158.64,60.89,156.02,61.69,153.45,62.61z M136.22,65.27c-2.9-1.71-5.22-3.25-7.69-4.5
		c-5.6-2.84-9.39-0.38-9.38,5.95c0.01,2.93,1.1,5.48,2.96,7.65c3.16,3.68,6.69,3.61,9.42-0.38
		C133.23,71.49,134.43,68.66,136.22,65.27z M138.24,58.7c2.01-5.02,2.38-9.23,2.16-13.5c-0.17-3.44-1.51-6.47-4.21-8.67
		c-3.37-2.74-7.26-1.33-7.98,2.92c-0.71,4.2,0.14,8.12,3.03,11.41C133.42,53.34,135.63,55.78,138.24,58.7z M144,70.58
		c2.38-1.08,3.72-2.62,3.9-4.79c0.21-2.52-1.2-4.38-3.33-5.54c-1.45-0.79-2.95-0.55-4.17,0.7c-1.61,1.65-1.79,3.68-1.1,5.67
		C139.98,68.61,141.41,70.06,144,70.58z M163.09,44.6c-3.26,4.98-3.25,5.03,2.22,10.72C168.75,50.7,164.64,48.06,163.09,44.6z
		 M170.41,66.49c-1.56-0.05-3.3-0.66-3.64,1.56c-0.49,3.26-0.08,6.2,4.21,6.8C171.43,72.07,171.54,69.35,170.41,66.49z"/>
	<g>
		<path class="st1" d="M492.9,74.47c1.4,8,5.59,12.46,12.65,13.32c5.97,0.72,11.72,0.11,16.96-3.29c2.32-1.51,4.67-3.37,7.75-2.61
			c3.21,0.79,5.37,2.79,6.42,5.98c1.13,3.42-0.39,6.08-2.7,8.22c-4.61,4.28-10.34,6.84-16.37,7.89
			c-10.59,1.83-20.89,0.64-30.13-5.54c-11.73-7.85-16.23-19.42-15.86-32.9c0.18-6.57,2.05-13.03,5.57-18.9
			c7.83-13.08,22.59-19.18,39.05-15.88c12.84,2.58,23.93,15.32,25.52,29.36c0.14,1.27,0.2,2.56,0.15,3.83
			c-0.27,6.48-3.53,9.91-10.03,10c-10.5,0.15-21,0-31.49,0.04C497.89,74.02,495.33,73.62,492.9,74.47z M492.68,61.51
			c9.77-0.15,19.48,0.22,29.36-0.28c-2.4-11.24-7.17-15.52-15.86-15.04C498.49,46.62,493.53,52,492.68,61.51z"/>
		<path class="st1" d="M283.66,74c1.02,7.78,5.33,12.74,11.94,13.67c5.61,0.79,11.25,0.76,16.35-2.47c1.51-0.95,3.15-1.7,4.71-2.57
			c3.57-1.99,6.5-0.49,8.98,1.94c2.7,2.64,2.92,6.68,0.66,9.8c-1.03,1.42-2.4,2.71-3.85,3.69c-16.81,11.41-43.01,8.18-54.32-9.89
			c-13.13-20.99-3.95-55.77,27.56-58.37c21.39-1.77,34.94,12.64,36.98,32.66c0.78,7.63-3.02,11.45-10.74,11.51
			C309.39,74.08,296.87,74,283.66,74z M312.46,61.16c-0.93-9.47-5.54-14.55-13.31-14.98c-8.58-0.47-13.7,4.11-16.4,14.98
			C292.7,61.16,302.56,61.16,312.46,61.16z"/>
		<path class="st1" d="M357.71,73.99c2.56,14.2,15.77,16.16,26.27,12.49c2.37-0.83,4.45-2.46,6.72-3.62c3.74-1.9,7.2-1.28,9.64,1.64
			c2.53,3.03,2.6,7.45-0.08,10.52c-4.21,4.83-9.93,6.94-15.94,8.49c-14.97,3.88-32.94-2.09-41.17-14.91
			c-15.32-23.85-1.47-55.79,26.54-58.78c23.5-2.51,39.04,16.94,37.16,36.51c-0.5,5.16-3.38,7.52-9.58,7.61
			c-10.48,0.15-20.97,0.04-31.45,0.04C363.27,73.99,360.74,73.99,357.71,73.99z M357.41,61.15c10.39,0,20.24,0,30.17,0
			c-1.99-9.91-6.94-14.88-14.67-14.99C365,46.05,360.18,50.49,357.41,61.15z"/>
		<path class="st1" d="M235.26,94.04c-4.19,4.37-8.43,8.18-14.42,9.7c-14.47,3.67-28.84-5.82-29.54-20.68
			c-0.68-14.32-0.36-28.69-0.21-43.04c0.06-5.95,4.07-9.47,9.79-9.45c5.63,0.02,9.83,3.55,10.19,9.29
			c0.37,5.87,0.09,11.78,0.11,17.67c0.03,5.64-0.17,11.29,0.2,16.9c0.47,7.16,5.1,11.44,11.84,11.54c7.1,0.11,12.32-4.3,12.63-11.6
			c0.41-9.72,0.15-19.47,0.22-29.2c0.02-2.29-0.21-4.57,0.47-6.86c1.71-5.69,5.71-8.43,11.51-7.69c4.75,0.61,8.01,4.11,8.13,9.54
			c0.21,9.48,0.09,18.96,0.09,28.44c0,7.94,0.05,15.89-0.03,23.83c-0.06,5.77-2.55,9.54-6.8,10.7c-5.4,1.48-9.44-0.46-12.54-6.01
			C236.41,96.26,235.95,95.35,235.26,94.04z"/>
		<path class="st1" d="M445.33,47.63c-9.11,0-16.98,0.02-24.84-0.01c-7.85-0.03-12.28-3.23-12.06-8.62
			c0.21-5.12,4.44-8.04,11.89-8.06c12.56-0.05,25.11,0.02,37.67-0.06c5.02-0.03,10.31,0.04,12.64,5.22
			c2.55,5.64-0.53,10.22-4.41,14.42c-10.57,11.44-20.98,23.02-32.62,35.83c7.29,0,13.2-0.01,19.12,0c3.59,0.01,7.22-0.31,10.75,0.13
			c5.09,0.63,8.1,4.3,7.85,8.79c-0.26,4.75-3.17,7.66-8.68,7.72c-15.12,0.17-30.24,0.26-45.35-0.01c-9.22-0.16-12.9-7.83-7.43-15.61
			c3.36-4.79,7.59-8.98,11.52-13.36C429.04,65.5,436.78,57.04,445.33,47.63z"/>
		<path class="st1" d="M47.48,50.8c-0.53,2.64,4.73,5.24,8.04,6.52c5.22,2.02,10.7,3.49,15.69,5.96
			c13.37,6.63,16.72,21.61,7.44,32.63c-4.71,5.6-11.32,7.74-18.32,8.41c-11.06,1.06-21.26-1.96-30.66-7.65
			c-4.64-2.81-5.93-7.8-3.46-11.79c2.29-3.69,6.79-4.76,11.5-2.18c4.97,2.72,10.12,4.75,15.65,5.9c2.29,0.47,4.56,0.61,6.8-0.15
			c2.19-0.75,4.45-1.52,4.91-4.26c0.47-2.8-1.41-4.28-3.45-5.39c-1.77-0.96-3.76-1.53-5.68-2.21c-4.56-1.62-9.25-2.92-13.67-4.87
			c-9.77-4.31-14.76-12.18-13.63-20.79c1.41-10.77,8.48-18.29,19.07-20.12c9.83-1.71,19.22-0.04,28.28,3.93
			c3.55,1.55,5.91,4.05,6.13,8.04c0.34,6.24-5.23,9.78-11.8,7.48c-3.36-1.18-6.55-2.93-9.98-3.82
			C53.88,44.75,47.95,47.95,47.48,50.8z"/>
	</g>
	<g>
		<path class="st2" d="M138.99,98.4c6.21,5.77,12.5,3.29,19.07-0.01c2.28,3.1,0.56,4.93-1.89,6.6c-9.01,6.15-18.94,7.34-29.3,4.92
			c-7.84-1.83-14.74-5.7-20.48-11.41c-3.82-3.8-7.87-7.13-12.69-9.75c-6.71-3.65-8.24-6.97-4.74-13.61
			c2.77-5.26,2.9-11.27,3.89-17.03c2.12-12.36,7.73-22.67,18.65-29.43c9.19-5.69,19.06-6.78,29.89-3.23
			c1.05,0.76,0.67,2.31,0.49,3.82c-0.38,0.22-0.83,0.7-1.12,0.62c-12.18-3.49-22.16,2.05-24.93,16.46
			c-3.55,18.46,1.64,34.26,14.83,47.48c2.29,2.29,4.69,4.75,8.4,4.66L138.99,98.4z"/>
		<path class="st2" d="M152.08,70.88c12.79,1.33,22.23,8.01,29.35,18.29c4.21,6.08,6.75,12.57,3.86,20.11
			c-2.85,7.42-9.61,9.49-15.91,4.78c-3.89-2.91-5.83-7.07-7.05-11.55c-0.73-2.69-1.4-5.54-1.29-8.28
			C161.4,85.16,157.16,78.09,152.08,70.88z"/>
		<path class="st2" d="M150.34,55.18c-0.87-1.67-0.57-3.01-0.13-4.13c1.76-4.49,0.52-8.41-1.73-12.36c-1.5-2.63-3.2-5.19-3.67-8.35
			c-0.61-4.02,0.56-7.43,3.52-9.31c3.08-1.95,7.79-1.56,10.63,1.14c3.08,2.93,5.14,6.52,4.5,10.9
			C162.12,42.16,158.16,49.74,150.34,55.18z"/>
		<path class="st2" d="M153.45,62.61c2.57-0.92,5.19-1.72,7.7-2.78c4.53-1.91,8.64-4.41,10.92-9.06c1.16-2.37,2.88-4.12,5.32-5.25
			c2.88-1.33,5.47-1.08,7.75,1.1c2.42,2.31,2.18,4.96,0.68,7.66c-3.58,6.45-9.9,8.77-16.45,9.82c-5.14,0.82-10.52,0.16-15.79,0.16
			C153.54,63.72,153.49,63.16,153.45,62.61z"/>
		<path class="st2" d="M136.22,65.27c-1.8,3.39-2.99,6.22-4.7,8.72c-2.73,3.99-6.25,4.06-9.42,0.38c-1.87-2.17-2.96-4.72-2.96-7.65
			c-0.01-6.33,3.79-8.78,9.38-5.95C131,62.02,133.33,63.56,136.22,65.27z"/>
		<path class="st2" d="M138.24,58.7c-2.6-2.91-4.82-5.36-6.99-7.84c-2.89-3.29-3.74-7.21-3.03-11.41c0.72-4.25,4.61-5.66,7.98-2.92
			c2.7,2.19,4.03,5.22,4.21,8.67C140.61,49.46,140.25,53.67,138.24,58.7z"/>
		<path class="st2" d="M139.07,98.49c0.11-0.23,0.37-0.56,0.3-0.67c-5.3-8.41-3.55-15.67,3.81-22.17c2.47,3.17,3.56,7.12,4.68,10.85
			c2.44,8.16-0.32,11.57-8.88,11.9C138.99,98.4,139.07,98.49,139.07,98.49z"/>
		<path class="st2" d="M144,70.58c-2.59-0.53-4.02-1.97-4.7-3.96c-0.69-1.99-0.51-4.03,1.1-5.67c1.22-1.24,2.73-1.49,4.17-0.7
			c2.13,1.16,3.53,3.02,3.33,5.54C147.72,67.96,146.38,69.51,144,70.58z"/>
		<path class="st2" d="M163.09,44.6c1.55,3.46,5.66,6.1,2.22,10.72C159.84,49.63,159.83,49.58,163.09,44.6z"/>
		<path class="st2" d="M170.41,66.49c1.13,2.87,1.03,5.58,0.57,8.35c-4.29-0.6-4.7-3.53-4.21-6.8
			C167.1,65.83,168.84,66.44,170.41,66.49z"/>
	</g>
	<path class="st0" d="M492.68,61.51c0.85-9.51,5.81-14.89,13.51-15.32c8.68-0.48,13.46,3.8,15.86,15.04
		C512.16,61.74,502.45,61.37,492.68,61.51z"/>
	<path class="st0" d="M312.46,61.16c-9.9,0-19.76,0-29.71,0c2.7-10.86,7.82-15.45,16.4-14.98
		C306.91,46.61,311.52,51.68,312.46,61.16z"/>
	<path class="st0" d="M357.41,61.15c2.77-10.66,7.59-15.1,15.5-14.99c7.72,0.11,12.68,5.08,14.67,14.99
		C377.65,61.15,367.8,61.15,357.41,61.15z"/>
	<g>
		<g>
			<path class="st1" d="M300.86,144.13c0.32,0,0.58,0.12,0.76,0.35c0.19,0.23,0.24,0.51,0.15,0.83l-0.65,3.1
				c-0.06,0.32-0.23,0.6-0.5,0.83c-0.28,0.23-0.58,0.35-0.89,0.35h-19.16c-0.32,0-0.57-0.12-0.76-0.35
				c-0.19-0.23-0.25-0.51-0.2-0.83l6.02-28.19c0.06-0.32,0.22-0.59,0.5-0.83c0.28-0.23,0.58-0.35,0.89-0.35h18.81
				c0.32,0,0.58,0.12,0.76,0.35c0.19,0.23,0.26,0.51,0.2,0.83l-0.7,3.1c-0.06,0.32-0.23,0.6-0.5,0.83
				c-0.28,0.23-0.58,0.35-0.89,0.35H290.6l-1.48,6.94h13.14c0.32,0,0.56,0.12,0.74,0.35c0.18,0.23,0.23,0.51,0.18,0.83l-0.66,3.1
				c-0.06,0.32-0.23,0.6-0.52,0.83c-0.29,0.23-0.6,0.35-0.92,0.35h-13.14l-1.53,7.24H300.86z"/>
		</g>
		<g>
			<path class="st1" d="M323.2,140.95l11.74-20.82c0.15-0.23,0.35-0.47,0.61-0.72c0.26-0.25,0.61-0.37,1.05-0.37h3.75
				c0.5,0,0.8,0.17,0.92,0.52c0.12,0.35,0.06,0.71-0.17,1.09L325.6,148.1c-0.29,0.5-0.58,0.87-0.85,1.11
				c-0.27,0.25-0.65,0.37-1.11,0.37h-3.75c-0.47,0-0.79-0.12-0.98-0.37c-0.19-0.25-0.31-0.62-0.37-1.11l-3.92-27.45
				c-0.06-0.41,0.06-0.78,0.37-1.11c0.31-0.33,0.66-0.5,1.07-0.5h3.01c0.44,0,0.74,0.12,0.89,0.37c0.16,0.25,0.27,0.49,0.33,0.72
				L323.2,140.95z"/>
		</g>
		<g>
			<path class="st1" d="M365.49,144.13c0.32,0,0.58,0.12,0.76,0.35c0.19,0.23,0.24,0.51,0.15,0.83l-0.65,3.1
				c-0.06,0.32-0.23,0.6-0.5,0.83c-0.28,0.23-0.58,0.35-0.89,0.35h-19.16c-0.32,0-0.57-0.12-0.76-0.35
				c-0.19-0.23-0.25-0.51-0.2-0.83l6.02-28.19c0.06-0.32,0.22-0.59,0.5-0.83c0.28-0.23,0.58-0.35,0.89-0.35h18.81
				c0.32,0,0.58,0.12,0.76,0.35c0.19,0.23,0.26,0.51,0.2,0.83l-0.7,3.1c-0.06,0.32-0.23,0.6-0.5,0.83
				c-0.28,0.23-0.58,0.35-0.89,0.35h-14.09l-1.48,6.94h13.14c0.32,0,0.56,0.12,0.74,0.35c0.18,0.23,0.23,0.51,0.18,0.83l-0.66,3.1
				c-0.06,0.32-0.23,0.6-0.52,0.83c-0.29,0.23-0.6,0.35-0.92,0.35h-13.14l-1.53,7.24H365.49z"/>
		</g>
		<g>
			<path class="st1" d="M395.64,149.59c-0.5,0-0.85-0.14-1.07-0.41c-0.22-0.28-0.37-0.49-0.46-0.63l-8.73-18.63l-3.97,18.5
				c-0.06,0.32-0.23,0.6-0.5,0.83c-0.28,0.23-0.58,0.35-0.89,0.35h-3.54c-0.32,0-0.57-0.12-0.76-0.35c-0.19-0.23-0.25-0.51-0.2-0.83
				l6.02-28.19c0.06-0.32,0.22-0.59,0.5-0.83c0.28-0.23,0.58-0.35,0.89-0.35h2.53c0.49,0,0.85,0.13,1.07,0.39
				c0.22,0.26,0.36,0.47,0.42,0.61l8.86,18.72l3.89-18.55c0.06-0.32,0.22-0.59,0.5-0.83c0.28-0.23,0.58-0.35,0.89-0.35h3.53
				c0.32,0,0.58,0.12,0.76,0.35c0.19,0.23,0.26,0.51,0.2,0.83l-5.98,28.19c-0.06,0.32-0.23,0.6-0.5,0.83
				c-0.28,0.23-0.58,0.35-0.89,0.35H395.64z"/>
		</g>
		<g>
			<path class="st1" d="M437.31,119.04c0.32,0,0.58,0.12,0.76,0.35c0.19,0.23,0.26,0.51,0.2,0.83l-0.7,3.1
				c-0.06,0.32-0.23,0.6-0.5,0.83c-0.28,0.23-0.58,0.35-0.89,0.35h-7.85l-5.11,23.91c-0.06,0.32-0.23,0.6-0.5,0.83
				c-0.28,0.23-0.58,0.35-0.89,0.35h-3.54c-0.32,0-0.58-0.12-0.76-0.35c-0.19-0.23-0.26-0.51-0.2-0.83l5.11-23.91h-7.86
				c-0.32,0-0.58-0.12-0.76-0.35c-0.19-0.23-0.26-0.51-0.2-0.83l0.7-3.1c0.06-0.32,0.22-0.59,0.5-0.83
				c0.28-0.23,0.58-0.35,0.89-0.35H437.31z"/>
		</g>
		<g>
			<path class="st1" d="M457.21,118.6c1.86,0,3.49,0.26,4.89,0.78c1.4,0.52,2.54,1.18,3.44,1.96c0.9,0.79,1.55,1.65,1.94,2.6
				c0.39,0.94,0.53,1.84,0.42,2.68c-0.06,0.35-0.23,0.63-0.5,0.85c-0.28,0.22-0.58,0.33-0.89,0.33h-3.05c-0.5,0-0.85-0.09-1.07-0.28
				c-0.22-0.19-0.39-0.44-0.5-0.76c-0.29-0.73-0.82-1.36-1.59-1.9c-0.77-0.54-2.03-0.81-3.77-0.81c-1.54,0-2.92,0.31-4.14,0.94
				c-1.23,0.63-1.95,1.49-2.18,2.6c-0.15,0.67-0.12,1.21,0.07,1.64c0.19,0.42,0.57,0.8,1.15,1.13c0.58,0.34,1.38,0.63,2.4,0.89
				c1.02,0.26,2.3,0.57,3.84,0.92c3.35,0.76,5.64,1.91,6.88,3.47c1.24,1.56,1.62,3.46,1.15,5.69c-0.26,1.31-0.71,2.49-1.35,3.56
				c-0.64,1.06-1.51,1.98-2.6,2.75c-1.09,0.77-2.43,1.36-4.01,1.77c-1.59,0.41-3.47,0.61-5.65,0.61c-1.54,0-3.05-0.2-4.51-0.59
				c-1.47-0.39-2.77-0.96-3.89-1.7c-1.12-0.74-1.99-1.64-2.6-2.68c-0.61-1.05-0.82-2.21-0.61-3.49c0.06-0.35,0.22-0.63,0.5-0.85
				c0.28-0.22,0.58-0.33,0.89-0.33h3.05c0.49,0,0.86,0.09,1.09,0.26c0.23,0.17,0.39,0.44,0.48,0.78c0.11,0.38,0.28,0.76,0.5,1.13
				c0.22,0.38,0.55,0.71,0.98,1.01c0.44,0.29,1.01,0.53,1.7,0.72c0.7,0.19,1.6,0.28,2.71,0.28c0.87,0,1.73-0.07,2.57-0.2
				c0.85-0.13,1.61-0.35,2.29-0.65c0.68-0.31,1.26-0.68,1.72-1.13c0.47-0.45,0.77-1.01,0.92-1.68c0.15-0.64,0.05-1.16-0.28-1.57
				c-0.33-0.41-0.88-0.76-1.64-1.07c-0.76-0.31-1.72-0.6-2.88-0.87c-1.16-0.28-2.51-0.62-4.06-1.03c-2.79-0.73-4.72-1.85-5.76-3.36
				c-1.05-1.51-1.34-3.46-0.87-5.85c0.49-2.65,1.83-4.74,3.99-6.26C450.54,119.37,453.49,118.6,457.21,118.6z"/>
		</g>
	</g>
</g>
</svg>
