<svg xmlns="http://www.w3.org/2000/svg" viewBox="0 0 519.58 101.53"><defs><style>.cls-1{fill:#1d1d1b;}</style></defs><g id="Calque_2" data-name="Calque 2"><g id="Calque_1-2" data-name="Calque 1"><path class="cls-1" d="M0,63.83V54.61L38.53,40.42v9.34L12.06,59.22l26.47,9.45V78Z"/><path class="cls-1" d="M76.47,17.85H87.7L55.08,100.58H43.85Z"/><path class="cls-1" d="M135.1,100.58H122l-2.25-15h-16l-2.24,15H89.59l13.24-82.73h19ZM105.43,74.35H118L111.69,32.5Z"/><path class="cls-1" d="M160.27,17.85q9.81,0,14.6,5.2t4.79,15.25V49.05q0,10.05-4.79,15.25t-14.6,5.2h-6.15v31.08h-13V17.85Zm-6.15,11.82v28h6.15A6.37,6.37,0,0,0,165,56q1.65-1.65,1.65-6.14V37.47c0-3-.55-5-1.65-6.15a6.41,6.41,0,0,0-4.73-1.65Z"/><path class="cls-1" d="M198.68,52.71h17.85V64.53H198.68V88.76h22.46v11.82H185.68V17.85h35.46V29.67H198.68ZM219,0,206.25,13.83H197L205.54,0Z"/><path class="cls-1" d="M256.36,100.58c-.16-.55-.31-1.06-.47-1.53a12.2,12.2,0,0,1-.41-1.78,21.23,21.23,0,0,1-.24-2.71q-.06-1.66-.06-4.14v-13q0-5.79-2-8.16c-1.34-1.57-3.5-2.36-6.5-2.36h-4.49v33.68h-13V17.85H248.8q10.15,0,14.71,4.73t4.55,14.3v6.5q0,12.76-8.51,16.78a11.65,11.65,0,0,1,6.8,6.56,29.68,29.68,0,0,1,1.83,11V90.54a52.73,52.73,0,0,0,.24,5.38,17.35,17.35,0,0,0,1.18,4.66ZM242.18,29.67V55.08h5.08A8.21,8.21,0,0,0,253,53.19q2.06-1.89,2.06-6.86V38.18c0-3-.53-5.16-1.59-6.5a6,6,0,0,0-5-2Z"/><path class="cls-1" d="M275.63,37.7q0-10,5.08-15.42t14.66-5.38q9.57,0,14.65,5.38t5.09,15.42v43q0,10-5.09,15.42t-14.65,5.38q-9.58,0-14.66-5.38t-5.08-15.42Zm13,43.86q0,4.48,1.83,6.32a7.49,7.49,0,0,0,9.81,0q1.83-1.83,1.83-6.32V36.88c0-3-.61-5.1-1.83-6.33a7.49,7.49,0,0,0-9.81,0c-1.22,1.23-1.83,3.33-1.83,6.33Z"/><path class="cls-1" d="M341.82,17.85h20.56q9.81,0,14.6,5.2t4.79,15.25V80.14q0,10-4.79,15.24t-14.6,5.2H341.82Zm13,11.82V88.76h7.33A6.53,6.53,0,0,0,367,87c1.18-1.18,1.78-3.27,1.78-6.26v-43c0-3-.6-5.08-1.78-6.26a6.53,6.53,0,0,0-4.84-1.77Z"/><path class="cls-1" d="M403,52.71h17.85V64.53H403V88.76H425.5v11.82H390V17.85H425.5V29.67H403Z"/><path class="cls-1" d="M453.16,85.34l9.92-67.49H475l-12.76,82.73H442.87L430.11,17.85h13.12Z"/><path class="cls-1" d="M481.05,78V68.67l26.47-9.45-26.47-9.46V40.42l38.53,14.19v9.22Z"/></g></g></svg>